<?xml version="1.0" encoding="utf-8"?>
<!-- Generator: Adobe Illustrator 15.0.0, SVG Export Plug-In  -->
<!DOCTYPE svg PUBLIC "-//W3C//DTD SVG 1.1//EN" "http://www.w3.org/Graphics/SVG/1.1/DTD/svg11.dtd" [
	<!ENTITY ns_flows "http://ns.adobe.com/Flows/1.0/">
]>
<svg version="1.1"
	 xmlns="http://www.w3.org/2000/svg" xmlns:xlink="http://www.w3.org/1999/xlink" xmlns:a="http://ns.adobe.com/AdobeSVGViewerExtensions/3.0/"
	 x="0px" y="0px" width="140px" height="140px" viewBox="-13 -13 140 140"
	 overflow="visible" enable-background="new -13 -13 140 140" xml:space="preserve">
<defs>
</defs>
<path display="none" fill="#FFFFFF" d="M111.24,105.306c-0.154,0.579-0.431,1.099-0.8,1.541c-0.591,0.705-1.418,1.198-2.359,1.367
	l-30.747,5.529c-0.236,0.042-0.474,0.063-0.71,0.063c-0.933,0-1.844-0.326-2.569-0.935c-0.91-0.763-1.433-1.89-1.429-3.079
	l0.105-31.24c0.003-0.955,0.347-1.855,0.937-2.559c0.372-0.443,0.838-0.806,1.38-1.057c0.538-0.25,1.113-0.372,1.684-0.372
	c0.923,0,1.836,0.319,2.571,0.936l9.192,7.713C94.421,76.107,98,66.977,98,57c0-22.643-18.356-41-41-41V0c31.48,0,57,25.521,57,57
	c0,13.894-4.98,26.617-13.243,36.504l9.188,7.708C111.134,102.21,111.637,103.807,111.24,105.306z M16,57
	c0-9.971,3.575-19.097,9.496-26.202l0.009,0.007l9.193,7.714c0.735,0.617,1.649,0.936,2.573,0.936c0.571,0,1.145-0.122,1.683-0.371
	c0.542-0.252,1.007-0.616,1.378-1.058c0.59-0.704,0.934-1.604,0.937-2.559l0.105-31.241c0.004-1.187-0.519-2.314-1.428-3.078
	c-0.725-0.609-1.636-0.936-2.568-0.936c-0.236,0-0.474,0.021-0.71,0.063L5.919,5.807c-0.94,0.169-1.767,0.662-2.358,1.367
	c-0.371,0.441-0.647,0.963-0.8,1.541c-0.4,1.499,0.104,3.095,1.294,4.093l9.178,7.701C4.977,30.394,0,43.112,0,57
	c0,31.479,25.522,57,57,57V98C34.358,98,16,79.643,16,57z"/>
<path d="M111.24,105.306c-0.154,0.579-0.431,1.099-0.8,1.541c-0.591,0.705-1.418,1.198-2.359,1.367l-30.747,5.529
	c-0.236,0.042-0.474,0.063-0.71,0.063c-0.933,0-1.844-0.326-2.569-0.935c-0.91-0.763-1.433-1.89-1.429-3.079l0.105-31.24
	c0.003-0.955,0.347-1.855,0.937-2.559c0.372-0.443,0.838-0.806,1.38-1.057c0.538-0.25,1.113-0.372,1.684-0.372
	c0.923,0,1.836,0.319,2.571,0.936l9.192,7.713C94.421,76.107,98,66.977,98,57c0-22.643-18.356-41-41-41V0c31.48,0,57,25.521,57,57
	c0,13.894-4.98,26.617-13.243,36.504l9.188,7.708C111.134,102.21,111.637,103.807,111.24,105.306z M16,57
	c0-9.971,3.575-19.097,9.496-26.202l0.009,0.007l9.193,7.714c0.735,0.617,1.649,0.936,2.573,0.936c0.571,0,1.145-0.122,1.683-0.371
	c0.542-0.252,1.007-0.616,1.378-1.058c0.59-0.704,0.934-1.604,0.937-2.559l0.105-31.241c0.004-1.187-0.519-2.314-1.428-3.078
	c-0.725-0.609-1.636-0.936-2.568-0.936c-0.236,0-0.474,0.021-0.71,0.063L5.919,5.807c-0.94,0.169-1.767,0.662-2.358,1.367
	c-0.371,0.441-0.647,0.963-0.8,1.541c-0.4,1.499,0.104,3.095,1.294,4.093l9.178,7.701C4.977,30.394,0,43.112,0,57
	c0,31.479,25.522,57,57,57V98C34.358,98,16,79.643,16,57z"/>
</svg>
