<?xml version="1.0" encoding="utf-8"?>
<!-- Generator: Adobe Illustrator 15.0.0, SVG Export Plug-In  -->
<!DOCTYPE svg PUBLIC "-//W3C//DTD SVG 1.1//EN" "http://www.w3.org/Graphics/SVG/1.1/DTD/svg11.dtd" [
	<!ENTITY ns_flows "http://ns.adobe.com/Flows/1.0/">
]>
<svg version="1.1"
	 xmlns="http://www.w3.org/2000/svg" xmlns:xlink="http://www.w3.org/1999/xlink" xmlns:a="http://ns.adobe.com/AdobeSVGViewerExtensions/3.0/"
	 x="0px" y="0px" width="140px" height="140px" viewBox="-10.922 -6 140 140"
	 overflow="visible" enable-background="new -10.922 -6 140 140" xml:space="preserve">
<defs>
</defs>
<path display="none" fill="#FFFFFF" d="M23.078,36c0-19.884,16.115-36,36-36c19.887,0,36,16.116,36,36
	c0,19.89-16.113,36.005-36,36.005C39.193,72.005,23.078,55.89,23.078,36z M77.541,80H40.617C18.222,80,0,98.219,0,120.617
	C0,124.692,3.309,128,7.386,128H110.77c4.078,0,7.387-3.308,7.387-7.383C118.156,98.219,99.935,80,77.541,80z"/>
<path d="M23.078,36c0-19.884,16.115-36,36-36c19.887,0,36,16.116,36,36c0,19.89-16.113,36.005-36,36.005
	C39.193,72.005,23.078,55.89,23.078,36z M77.541,80H40.617C18.222,80,0,98.219,0,120.617C0,124.692,3.309,128,7.386,128H110.77
	c4.078,0,7.387-3.308,7.387-7.383C118.156,98.219,99.935,80,77.541,80z"/>
</svg>
