<?xml version="1.0" encoding="utf-8"?>
<!-- Generator: Adobe Illustrator 15.0.0, SVG Export Plug-In  -->
<!DOCTYPE svg PUBLIC "-//W3C//DTD SVG 1.1//EN" "http://www.w3.org/Graphics/SVG/1.1/DTD/svg11.dtd" [
	<!ENTITY ns_flows "http://ns.adobe.com/Flows/1.0/">
]>
<svg version="1.1"
	 xmlns="http://www.w3.org/2000/svg" xmlns:xlink="http://www.w3.org/1999/xlink" xmlns:a="http://ns.adobe.com/AdobeSVGViewerExtensions/3.0/"
	 x="0px" y="0px" width="140px" height="140px" viewBox="-6 -6 140 140" overflow="visible" enable-background="new -6 -6 140 140"
	 xml:space="preserve">
<defs>
</defs>
<path fill="#FFFFFF" d="M128,64c0,35.346-28.652,64-64,64S0,99.346,0,64S28.652,0,64,0S128,28.654,128,64z M63.514,31.515l-24,24
	c-2.344,2.345-3.516,5.418-3.514,8.49c0,3.069,1.172,6.139,3.514,8.48l24,24c2.346,2.344,5.42,3.516,8.49,3.515
	s6.141-1.173,8.482-3.515C82.83,94.142,84,91.069,84,87.998c-0.002-3.07-1.172-6.141-3.514-8.483L64.971,64l15.516-15.515
	C82.83,46.142,84,43.069,84,39.998c-0.002-3.07-1.172-6.141-3.514-8.483C78.143,29.172,75.07,28,72,28S65.857,29.172,63.514,31.515z
	"/>
</svg>
