<?xml version="1.0" encoding="utf-8"?>
<!-- Generator: Adobe Illustrator 15.0.0, SVG Export Plug-In  -->
<!DOCTYPE svg PUBLIC "-//W3C//DTD SVG 1.1//EN" "http://www.w3.org/Graphics/SVG/1.1/DTD/svg11.dtd" [
	<!ENTITY ns_flows "http://ns.adobe.com/Flows/1.0/">
]>
<svg version="1.1"
	 xmlns="http://www.w3.org/2000/svg" xmlns:xlink="http://www.w3.org/1999/xlink" xmlns:a="http://ns.adobe.com/AdobeSVGViewerExtensions/3.0/"
	 x="0px" y="0px" width="140px" height="140px" viewBox="-6 -6 140 140" overflow="visible" enable-background="new -6 -6 140 140"
	 xml:space="preserve">
<defs>
</defs>
<path display="none" fill="#FFFFFF" d="M64,128C28.654,128,0,99.348,0,64S28.654,0,64,0s64,28.652,64,64S99.346,128,64,128z
	 M96.485,63.514l-24-24c-2.345-2.344-5.418-3.516-8.49-3.514c-3.069,0-6.139,1.172-8.48,3.514l-24,24
	c-2.344,2.346-3.516,5.42-3.515,8.49s1.173,6.141,3.515,8.482C33.858,82.83,36.931,84,40.002,84c3.07-0.002,6.141-1.172,8.483-3.514
	L64,64.971l15.515,15.516C81.858,82.83,84.931,84,88.002,84c3.07-0.002,6.141-1.172,8.483-3.514C98.828,78.143,100,75.07,100,72
	S98.828,65.857,96.485,63.514z"/>
<path d="M64,128C28.654,128,0,99.348,0,64S28.654,0,64,0s64,28.652,64,64S99.346,128,64,128z M96.485,63.514l-24-24
	c-2.345-2.344-5.418-3.516-8.49-3.514c-3.069,0-6.139,1.172-8.48,3.514l-24,24c-2.344,2.346-3.516,5.42-3.515,8.49
	s1.173,6.141,3.515,8.482C33.858,82.83,36.931,84,40.002,84c3.07-0.002,6.141-1.172,8.483-3.514L64,64.971l15.515,15.516
	C81.858,82.83,84.931,84,88.002,84c3.07-0.002,6.141-1.172,8.483-3.514C98.828,78.143,100,75.07,100,72S98.828,65.857,96.485,63.514
	z"/>
</svg>
