<?xml version="1.0" encoding="utf-8"?>
<!-- Generator: Adobe Illustrator 15.0.0, SVG Export Plug-In  -->
<!DOCTYPE svg PUBLIC "-//W3C//DTD SVG 1.1//EN" "http://www.w3.org/Graphics/SVG/1.1/DTD/svg11.dtd" [
	<!ENTITY ns_flows "http://ns.adobe.com/Flows/1.0/">
]>
<svg version="1.1"
	 xmlns="http://www.w3.org/2000/svg" xmlns:xlink="http://www.w3.org/1999/xlink" xmlns:a="http://ns.adobe.com/AdobeSVGViewerExtensions/3.0/"
	 x="0px" y="0px" width="140px" height="140px" viewBox="-6 -6 140 140" overflow="visible" enable-background="new -6 -6 140 140"
	 xml:space="preserve">
<defs>
</defs>
<path fill="#FFFFFF" d="M58.344,2.344l-56,55.998C0.812,59.873,0,61.92,0,64.002c0,1.029,0.199,2.068,0.609,3.059
	C1.848,70.051,4.764,72,8,72h24v48c0,4.418,3.582,8,8,8h48c4.418,0,8-3.582,8-8V72h24c3.235,0,6.152-1.949,7.391-4.939
	c0.41-0.99,0.609-2.029,0.609-3.059c0-2.084-0.812-4.129-2.343-5.66l-56-55.998C66.532-0.781,61.467-0.781,58.344,2.344z"/>
</svg>
