<?xml version="1.0" encoding="utf-8"?>
<!-- Generator: Adobe Illustrator 15.0.0, SVG Export Plug-In  -->
<!DOCTYPE svg PUBLIC "-//W3C//DTD SVG 1.1//EN" "http://www.w3.org/Graphics/SVG/1.1/DTD/svg11.dtd" [
	<!ENTITY ns_flows "http://ns.adobe.com/Flows/1.0/">
]>
<svg version="1.1"
	 xmlns="http://www.w3.org/2000/svg" xmlns:xlink="http://www.w3.org/1999/xlink" xmlns:a="http://ns.adobe.com/AdobeSVGViewerExtensions/3.0/"
	 x="0px" y="0px" width="140px" height="140px" viewBox="-14 -6 140 140"
	 overflow="visible" enable-background="new -14 -6 140 140" xml:space="preserve">
<defs>
</defs>
<path display="none" fill="#FFFFFF" d="M0,40V24c0-4.418,3.582-8,8-8h8V8c0-4.418,3.582-8,8-8s8,3.582,8,8v8h48V8
	c0-4.418,3.582-8,8-8s8,3.582,8,8v8h8c4.418,0,8,3.582,8,8v16H0z M0,48v72c0,4.418,3.582,8,8,8h96c4.418,0,8-3.582,8-8V48H0z"/>
<path d="M0,40V24c0-4.418,3.582-8,8-8h8V8c0-4.418,3.582-8,8-8s8,3.582,8,8v8h48V8c0-4.418,3.582-8,8-8s8,3.582,8,8v8h8
	c4.418,0,8,3.582,8,8v16H0z M0,48v72c0,4.418,3.582,8,8,8h96c4.418,0,8-3.582,8-8V48H0z"/>
</svg>
