<?xml version="1.0" encoding="utf-8"?>
<!-- Generator: Adobe Illustrator 15.0.0, SVG Export Plug-In  -->
<!DOCTYPE svg PUBLIC "-//W3C//DTD SVG 1.1//EN" "http://www.w3.org/Graphics/SVG/1.1/DTD/svg11.dtd" [
	<!ENTITY ns_flows "http://ns.adobe.com/Flows/1.0/">
]>
<svg version="1.1"
	 xmlns="http://www.w3.org/2000/svg" xmlns:xlink="http://www.w3.org/1999/xlink" xmlns:a="http://ns.adobe.com/AdobeSVGViewerExtensions/3.0/"
	 x="0px" y="0px" width="140px" height="140px" viewBox="-22 -6 140 140"
	 overflow="visible" enable-background="new -22 -6 140 140" xml:space="preserve">
<defs>
</defs>
<path fill="#FFFFFF" d="M96,48c0,34.912-40.615,75.928-42.342,77.657C52.096,127.219,50.047,128,48,128s-4.094-0.781-5.656-2.343
	C40.615,123.928,0,82.912,0,48C0,21.533,21.533,0,48,0S96,21.533,96,48z M48,72c13.256,0,24-10.744,24-24c0-13.254-10.744-24-24-24
	c-13.254,0-24,10.746-24,24C24,61.256,34.746,72,48,72z"/>
</svg>
