<?xml version="1.0" encoding="utf-8"?>
<!-- Generator: Adobe Illustrator 15.0.0, SVG Export Plug-In  -->
<!DOCTYPE svg PUBLIC "-//W3C//DTD SVG 1.1//EN" "http://www.w3.org/Graphics/SVG/1.1/DTD/svg11.dtd" [
	<!ENTITY ns_flows "http://ns.adobe.com/Flows/1.0/">
]>
<svg version="1.1"
	 xmlns="http://www.w3.org/2000/svg" xmlns:xlink="http://www.w3.org/1999/xlink" xmlns:a="http://ns.adobe.com/AdobeSVGViewerExtensions/3.0/"
	 x="0px" y="0px" width="140px" height="140px" viewBox="-6 -6 140 140" overflow="visible" enable-background="new -6 -6 140 140"
	 xml:space="preserve">
<defs>
</defs>
<path fill="#FFFFFF" d="M123.313,123.313C120.189,126.438,116.095,128,112,128s-8.189-1.562-11.314-4.687L75.668,98.296
	C68.566,101.934,60.527,104,52,104C23.281,104,0,80.719,0,52S23.281,0,52,0s52,23.281,52,52c0,8.527-2.066,16.567-5.704,23.669
	l25.018,25.018C129.562,106.935,129.562,117.065,123.313,123.313z M52,80c15.464,0,28-12.536,28-28S67.464,24,52,24
	c-15.465,0-28,12.536-28,28S36.535,80,52,80z"/>
</svg>
